<?xml version='1.0' encoding='iso-8859-1'?>
<svg version="1.1" xmlns="http://www.w3.org/2000/svg" viewBox="0 0 261.018 261.018" xmlns:xlink="http://www.w3.org/1999/xlink" enable-background="new 0 0 261.018 261.018">
  <g>
    <path d="m226.216,139.21v-26.102c0-52.204-43.503-95.707-95.707-95.707s-95.707,43.503-95.707,95.707v26.102c-19.141,0-34.802,15.661-34.802,34.802v34.802c0,19.141 15.661,34.802 34.802,34.802s34.802-15.661 34.802-34.802v-34.802c0-12.79-7.065-23.892-17.401-29.948v-30.957c0-43.503 34.802-78.305 78.305-78.305s78.305,34.802 78.305,78.305v30.957c-10.336,6.055-17.401,17.157-17.401,29.948v34.802c0,19.141 15.661,34.802 34.802,34.802s34.802-15.661 34.802-34.802v-34.802c0.002-19.141-15.659-34.802-34.8-34.802zm-174.012,69.604c-7.10543e-15,10.441-6.96,17.401-17.401,17.401s-17.401-6.96-17.401-17.401v-34.802c0-10.441 6.96-17.401 17.401-17.401s17.401,6.96 17.401,17.401v34.802zm191.413,0c-2.84217e-14,10.441-6.96,17.401-17.401,17.401s-17.401-6.96-17.401-17.401v-34.802c0-10.441 6.96-17.401 17.401-17.401s17.401,6.96 17.401,17.401v34.802z"/>
  </g>
</svg>
