<svg xmlns="http://www.w3.org/2000/svg" xmlns:xlink="http://www.w3.org/1999/xlink" viewBox="0 0 248.31 181.75">
  <defs>
    <style>
      .cls-1, .cls-18, .cls-7 {
        fill: none;
      }

      .cls-2 {
        isolation: isolate;
      }

      .cls-3 {
        fill: #954cb5;
      }

      .cls-4 {
        fill: #8849ae;
      }

      .cls-5 {
        fill: #6a1b9a;
      }

      .cls-6 {
        fill: #616161;
      }

      .cls-18, .cls-7 {
        stroke: #212121;
        stroke-linecap: round;
        stroke-width: 2px;
      }

      .cls-7 {
        stroke-linejoin: round;
      }

      .cls-8 {
        fill: #bdbdbd;
      }

      .cls-9 {
        mix-blend-mode: multiply;
      }

      .cls-10 {
        clip-path: url(#clip-path);
      }

      .cls-11 {
        fill: #e0e0e0;
      }

      .cls-12 {
        clip-path: url(#clip-path-2);
      }

      .cls-13 {
        clip-path: url(#clip-path-3);
      }

      .cls-14 {
        fill: #ffb74d;
      }

      .cls-15 {
        fill: #8d6e63;
      }

      .cls-16 {
        fill: #6d4c41;
      }

      .cls-17 {
        clip-path: url(#clip-path-4);
      }

      .cls-18 {
        stroke-miterlimit: 10;
      }

      .cls-19 {
        fill: #fdd835;
      }
    </style>
    <clipPath id="clip-path" transform="translate(-9.55 -161.86)">
      <rect class="cls-1" x="95.07" y="265.72" width="76.54" height="2.1"/>
    </clipPath>
    <clipPath id="clip-path-2" transform="translate(-9.55 -161.86)">
      <rect class="cls-1" x="95.07" y="227.68" width="76.54" height="2.1"/>
    </clipPath>
    <clipPath id="clip-path-3" transform="translate(-9.55 -161.86)">
      <rect class="cls-1" x="95.07" y="208.63" width="76.54" height="2.1"/>
    </clipPath>
    <clipPath id="clip-path-4" transform="translate(-9.55 -161.86)">
      <rect class="cls-1" x="112.33" y="305.32" width="42.32" height="3.73"/>
    </clipPath>
  </defs>
  <title>23434</title>
  <g class="cls-2">
    <g id="Слой_1" data-name="Слой 1">
      <g>
        <path class="cls-3" d="M9.55,343.47a124.16,124.16,0,0,1,248.31,0" transform="translate(-9.55 -161.86)"/>
        <path class="cls-4" d="M30.25,341.24a103.29,103.29,0,0,1,206.57,0" transform="translate(-9.55 -161.86)"/>
        <path class="cls-5" d="M54.58,342.12a80.09,80.09,0,0,1,160.17,0" transform="translate(-9.55 -161.86)"/>
        <rect class="cls-6" x="84.29" y="83.79" width="79" height="7.33"/>
        <rect class="cls-7" x="84.29" y="83.79" width="79" height="7.33"/>
        <path class="cls-8" d="M175.45,245.64H91.22a2.94,2.94,0,0,1-2.94-2.94v-5.84a2.94,2.94,0,0,1,2.94-2.94h84.22a2.94,2.94,0,0,1,2.94,2.94v5.84a2.94,2.94,0,0,1-2.94,2.94" transform="translate(-9.55 -161.86)"/>
        <rect class="cls-7" x="78.73" y="72.06" width="90.11" height="11.72" rx="2.94" ry="2.94"/>
        <rect class="cls-6" x="84.29" y="102.84" width="79" height="7.33"/>
        <rect class="cls-7" x="84.29" y="102.84" width="79" height="7.33"/>
        <path class="cls-8" d="M175.45,264.7H91.22a2.94,2.94,0,0,1-2.94-2.94v-5.84A2.94,2.94,0,0,1,91.22,253h84.22a2.94,2.94,0,0,1,2.94,2.94v5.84a2.94,2.94,0,0,1-2.94,2.94" transform="translate(-9.55 -161.86)"/>
        <rect class="cls-7" x="78.73" y="91.11" width="90.11" height="11.72" rx="2.94" ry="2.94"/>
        <g class="cls-9">
          <g class="cls-10">
            <rect class="cls-11" x="85.52" y="103.87" width="76.54" height="2.1"/>
          </g>
        </g>
        <rect class="cls-6" x="84.29" y="64.74" width="79" height="7.33"/>
        <rect class="cls-7" x="84.29" y="64.74" width="79" height="7.33"/>
        <path class="cls-8" d="M175.45,226.59H91.22a2.94,2.94,0,0,1-2.94-2.94v-5.84a2.94,2.94,0,0,1,2.94-2.94h84.22a2.94,2.94,0,0,1,2.94,2.94v5.84a2.94,2.94,0,0,1-2.94,2.94" transform="translate(-9.55 -161.86)"/>
        <rect class="cls-7" x="78.73" y="53.01" width="90.11" height="11.72" rx="2.94" ry="2.94"/>
        <path class="cls-8" d="M88.44,206.74c0-12.64,6.28-22.89,14-22.89h62.05c7.75,0,14,10.25,14,22.89H88.44Z" transform="translate(-9.55 -161.86)"/>
        <path class="cls-7" d="M88.44,206.74c0-12.64,6.28-22.89,14-22.89h62.05c7.75,0,14,10.25,14,22.89H88.44Z" transform="translate(-9.55 -161.86)"/>
        <path class="cls-8" d="M88.44,272c0,12.64,6.28,22.89,14,22.89h62.05c7.75,0,14-10.25,14-22.89H88.44Z" transform="translate(-9.55 -161.86)"/>
        <path class="cls-7" d="M88.44,272c0,12.64,6.28,22.89,14,22.89h62.05c7.75,0,14-10.25,14-22.89H88.44Z" transform="translate(-9.55 -161.86)"/>
        <g class="cls-9">
          <g class="cls-12">
            <rect class="cls-11" x="85.52" y="65.83" width="76.54" height="2.1"/>
          </g>
        </g>
        <rect class="cls-6" x="84.29" y="45.68" width="79" height="7.33"/>
        <rect class="cls-7" x="84.29" y="45.68" width="79" height="7.33"/>
        <g class="cls-9">
          <g class="cls-13">
            <rect class="cls-11" x="85.52" y="46.77" width="76.54" height="2.1"/>
          </g>
        </g>
        <rect class="cls-8" x="117.23" y="41.41" width="13.11" height="77.18"/>
        <line class="cls-7" x1="117.23" y1="44.86" x2="117.23" y2="110.17"/>
        <line class="cls-7" x1="130.34" y1="44.86" x2="130.34" y2="110.17"/>
        <line class="cls-7" x1="80.36" y1="119.65" x2="88.03" y2="119.65"/>
        <line class="cls-7" x1="79.53" y1="114.67" x2="87.2" y2="114.67"/>
        <line class="cls-7" x1="82.86" y1="124.63" x2="90.53" y2="124.63"/>
        <line class="cls-7" x1="85.7" y1="129.61" x2="93.36" y2="129.61"/>
        <line class="cls-7" x1="166.84" y1="119.65" x2="159.17" y2="119.65"/>
        <line class="cls-7" x1="167.67" y1="114.67" x2="160.01" y2="114.67"/>
        <line class="cls-7" x1="164.34" y1="124.63" x2="156.67" y2="124.63"/>
        <line class="cls-7" x1="161.51" y1="129.61" x2="153.84" y2="129.61"/>
        <line class="cls-7" x1="80.36" y1="35.95" x2="88.03" y2="35.95"/>
        <line class="cls-7" x1="79.53" y1="40.93" x2="87.2" y2="40.93"/>
        <line class="cls-7" x1="82.86" y1="30.97" x2="90.53" y2="30.97"/>
        <line class="cls-7" x1="85.7" y1="25.99" x2="93.36" y2="25.99"/>
        <line class="cls-7" x1="167.84" y1="35.95" x2="160.17" y2="35.95"/>
        <line class="cls-7" x1="168.67" y1="40.93" x2="161.01" y2="40.93"/>
        <line class="cls-7" x1="165.34" y1="30.97" x2="157.67" y2="30.97"/>
        <line class="cls-7" x1="162.51" y1="25.99" x2="154.84" y2="25.99"/>
        <rect class="cls-14" x="93.81" y="133.06" width="60.27" height="9.76"/>
        <rect class="cls-7" x="93.81" y="133.06" width="60.27" height="9.76"/>
        <polygon class="cls-14" points="164.81 180.75 83.06 180.75 93.82 169.65 153.83 169.65 164.81 180.75"/>
        <polygon class="cls-7" points="164.81 180.75 83.06 180.75 93.82 169.65 153.83 169.65 164.81 180.75"/>
        <rect class="cls-15" x="101.74" y="143.53" width="44.24" height="26.11"/>
        <rect class="cls-16" x="123.79" y="143.47" width="21.24" height="26.18"/>
        <g class="cls-9">
          <g class="cls-17">
            <rect class="cls-11" x="102.78" y="143.47" width="42.32" height="3.74"/>
          </g>
        </g>
        <line class="cls-18" x1="106.3" y1="154.19" x2="106.3" y2="169.06"/>
        <line class="cls-18" x1="140.61" y1="159.8" x2="140.61" y2="169.06"/>
        <line class="cls-18" x1="135.74" y1="157.42" x2="135.74" y2="169.06"/>
        <line class="cls-18" x1="135.74" y1="143.81" x2="135.74" y2="149.32"/>
        <line class="cls-18" x1="120.3" y1="144.44" x2="120.3" y2="154.62"/>
        <line class="cls-18" x1="115.93" y1="144.44" x2="115.93" y2="149.82"/>
        <line class="cls-18" x1="120.3" y1="159.32" x2="120.3" y2="162.67"/>
        <rect class="cls-7" x="101.57" y="143.47" width="44.24" height="26.18"/>
        <path class="cls-19" d="M63.25,234.69l12-2.49a1.7,1.7,0,0,1,1.88,2.41l-5.29,11a1.7,1.7,0,0,0,.06,1.59l6.06,10.6a1.7,1.7,0,0,1-1.71,2.53l-12.1-1.64a1.71,1.71,0,0,0-1.49.54l-8.2,9a1.7,1.7,0,0,1-2.94-.84l-2.19-12a1.71,1.71,0,0,0-1-1.25l-11.13-5a1.7,1.7,0,0,1-.11-3.05l10.75-5.79A1.7,1.7,0,0,0,48.7,239L50,226.87a1.7,1.7,0,0,1,2.87-1l8.83,8.43a1.7,1.7,0,0,0,1.52.44" transform="translate(-9.55 -161.86)"/>
        <path class="cls-7" d="M63.25,234.69l12-2.49a1.7,1.7,0,0,1,1.88,2.41l-5.29,11a1.7,1.7,0,0,0,.06,1.59l6.06,10.6a1.7,1.7,0,0,1-1.71,2.53l-12.1-1.64a1.71,1.71,0,0,0-1.49.54l-8.2,9a1.7,1.7,0,0,1-2.94-.84l-2.19-12a1.71,1.71,0,0,0-1-1.25l-11.13-5a1.7,1.7,0,0,1-.11-3.05l10.75-5.79A1.7,1.7,0,0,0,48.7,239L50,226.87a1.7,1.7,0,0,1,2.87-1l8.83,8.43A1.7,1.7,0,0,0,63.25,234.69Z" transform="translate(-9.55 -161.86)"/>
        <path class="cls-19" d="M26.88,215.41l4.61,2.48a0.73,0.73,0,0,1,0,1.31l-4.77,2.15a0.73,0.73,0,0,0-.42.54L25.32,227a0.73,0.73,0,0,1-1.26.36l-3.52-3.87a0.73,0.73,0,0,0-.64-0.23l-5.19.7a0.73,0.73,0,0,1-.73-1.09l2.6-4.54a0.73,0.73,0,0,0,0-.68L14.33,213a0.73,0.73,0,0,1,.81-1L20.26,213a0.73,0.73,0,0,0,.65-0.19l3.78-3.62a0.73,0.73,0,0,1,1.23.45l0.57,5.2a0.73,0.73,0,0,0,.38.56" transform="translate(-9.55 -161.86)"/>
        <path class="cls-7" d="M26.88,215.41l4.61,2.48a0.73,0.73,0,0,1,0,1.31l-4.77,2.15a0.73,0.73,0,0,0-.42.54L25.32,227a0.73,0.73,0,0,1-1.26.36l-3.52-3.87a0.73,0.73,0,0,0-.64-0.23l-5.19.7a0.73,0.73,0,0,1-.73-1.09l2.6-4.54a0.73,0.73,0,0,0,0-.68L14.33,213a0.73,0.73,0,0,1,.81-1L20.26,213a0.73,0.73,0,0,0,.65-0.19l3.78-3.62a0.73,0.73,0,0,1,1.23.45l0.57,5.2A0.73,0.73,0,0,0,26.88,215.41Z" transform="translate(-9.55 -161.86)"/>
        <path class="cls-19" d="M215.67,291.34l3.49-5.51a0.91,0.91,0,0,1,1.63.17l2.25,6.13a0.91,0.91,0,0,0,.63.57l6.32,1.62a0.91,0.91,0,0,1,.34,1.6l-5.13,4a0.91,0.91,0,0,0-.35.78l0.41,6.51a0.91,0.91,0,0,1-1.42.81l-5.42-3.63a0.92,0.92,0,0,0-.84-0.09l-6.07,2.41a0.91,0.91,0,0,1-1.21-1.1l1.78-6.28a0.92,0.92,0,0,0-.18-0.83l-4.16-5a0.91,0.91,0,0,1,.67-1.49l6.52-.25a0.91,0.91,0,0,0,.74-0.42" transform="translate(-9.55 -161.86)"/>
        <path class="cls-7" d="M215.67,291.34l3.49-5.51a0.91,0.91,0,0,1,1.63.17l2.25,6.13a0.91,0.91,0,0,0,.63.57l6.32,1.62a0.91,0.91,0,0,1,.34,1.6l-5.13,4a0.91,0.91,0,0,0-.35.78l0.41,6.51a0.91,0.91,0,0,1-1.42.81l-5.42-3.63a0.92,0.92,0,0,0-.84-0.09l-6.07,2.41a0.91,0.91,0,0,1-1.21-1.1l1.78-6.28a0.92,0.92,0,0,0-.18-0.83l-4.16-5a0.91,0.91,0,0,1,.67-1.49l6.52-.25A0.91,0.91,0,0,0,215.67,291.34Z" transform="translate(-9.55 -161.86)"/>
        <path class="cls-19" d="M218.7,191.83l-4.19,11a1.64,1.64,0,0,1-2.93.28l-6.18-10a1.64,1.64,0,0,0-1.32-.78l-11.76-.58a1.64,1.64,0,0,1-1.17-2.7l7.61-9a1.65,1.65,0,0,0,.33-1.49L196,167.19a1.64,1.64,0,0,1,2.21-1.95l10.89,4.47a1.64,1.64,0,0,0,1.52-.15l9.86-6.44a1.64,1.64,0,0,1,2.54,1.5l-0.88,11.74a1.64,1.64,0,0,0,.61,1.4l9.17,7.38a1.64,1.64,0,0,1-.64,2.88l-11.44,2.79a1.64,1.64,0,0,0-1.15,1" transform="translate(-9.55 -161.86)"/>
        <path class="cls-7" d="M218.7,191.83l-4.19,11a1.64,1.64,0,0,1-2.93.28l-6.18-10a1.64,1.64,0,0,0-1.32-.78l-11.76-.58a1.64,1.64,0,0,1-1.17-2.7l7.61-9a1.65,1.65,0,0,0,.33-1.49L196,167.19a1.64,1.64,0,0,1,2.21-1.95l10.89,4.47a1.64,1.64,0,0,0,1.52-.15l9.86-6.44a1.64,1.64,0,0,1,2.54,1.5l-0.88,11.74a1.64,1.64,0,0,0,.61,1.4l9.17,7.38a1.64,1.64,0,0,1-.64,2.88l-11.44,2.79A1.64,1.64,0,0,0,218.7,191.83Z" transform="translate(-9.55 -161.86)"/>
        <path class="cls-19" d="M243.42,220.62l-2.7,4.23a0.7,0.7,0,0,1-1.25-.14L237.76,220a0.7,0.7,0,0,0-.48-0.44l-4.85-1.26a0.7,0.7,0,0,1-.26-1.23l4-3.09a0.7,0.7,0,0,0,.27-0.59l-0.3-5a0.7,0.7,0,0,1,1.09-.62l4.16,2.8a0.7,0.7,0,0,0,.65.07l4.67-1.84a0.7,0.7,0,0,1,.93.84l-1.38,4.82a0.7,0.7,0,0,0,.13.64l3.19,3.87a0.7,0.7,0,0,1-.52,1.14l-5,.18a0.7,0.7,0,0,0-.56.32" transform="translate(-9.55 -161.86)"/>
        <path class="cls-7" d="M243.42,220.62l-2.7,4.23a0.7,0.7,0,0,1-1.25-.14L237.76,220a0.7,0.7,0,0,0-.48-0.44l-4.85-1.26a0.7,0.7,0,0,1-.26-1.23l4-3.09a0.7,0.7,0,0,0,.27-0.59l-0.3-5a0.7,0.7,0,0,1,1.09-.62l4.16,2.8a0.7,0.7,0,0,0,.65.07l4.67-1.84a0.7,0.7,0,0,1,.93.84l-1.38,4.82a0.7,0.7,0,0,0,.13.64l3.19,3.87a0.7,0.7,0,0,1-.52,1.14l-5,.18A0.7,0.7,0,0,0,243.42,220.62Z" transform="translate(-9.55 -161.86)"/>
        <path class="cls-19" d="M223.22,252.62l2.25,10.69a1.52,1.52,0,0,1-2.15,1.69l-9.85-4.71a1.52,1.52,0,0,0-1.42.05l-9.47,5.44a1.52,1.52,0,0,1-2.27-1.52l1.44-10.83a1.53,1.53,0,0,0-.49-1.33l-8.1-7.32a1.52,1.52,0,0,1,.75-2.63l10.74-2a1.52,1.52,0,0,0,1.12-.88l4.46-10a1.52,1.52,0,0,1,2.73-.1l5.2,9.6a1.52,1.52,0,0,0,1.18.79l10.86,1.16a1.52,1.52,0,0,1,.94,2.57l-7.52,7.91a1.52,1.52,0,0,0-.39,1.36" transform="translate(-9.55 -161.86)"/>
        <path class="cls-7" d="M223.22,252.62l2.25,10.69a1.52,1.52,0,0,1-2.15,1.69l-9.85-4.71a1.52,1.52,0,0,0-1.42.05l-9.47,5.44a1.52,1.52,0,0,1-2.27-1.52l1.44-10.83a1.53,1.53,0,0,0-.49-1.33l-8.1-7.32a1.52,1.52,0,0,1,.75-2.63l10.74-2a1.52,1.52,0,0,0,1.12-.88l4.46-10a1.52,1.52,0,0,1,2.73-.1l5.2,9.6a1.52,1.52,0,0,0,1.18.79l10.86,1.16a1.52,1.52,0,0,1,.94,2.57l-7.52,7.91A1.52,1.52,0,0,0,223.22,252.62Z" transform="translate(-9.55 -161.86)"/>
        <path class="cls-19" d="M31.07,298l-4.72-3.76a0.84,0.84,0,0,1,.32-1.48l5.86-1.46a0.84,0.84,0,0,0,.58-0.52l2.12-5.65a0.84,0.84,0,0,1,1.5-.15l3.2,5.12a0.84,0.84,0,0,0,.68.4l6,0.27a0.84,0.84,0,0,1,.61,1.38l-3.88,4.62a0.84,0.84,0,0,0-.17.77l1.61,5.82a0.84,0.84,0,0,1-1.13,1l-5.6-2.26a0.85,0.85,0,0,0-.78.08l-5,3.33a0.84,0.84,0,0,1-1.3-.76l0.42-6a0.84,0.84,0,0,0-.31-0.72" transform="translate(-9.55 -161.86)"/>
        <path class="cls-7" d="M31.07,298l-4.72-3.76a0.84,0.84,0,0,1,.32-1.48l5.86-1.46a0.84,0.84,0,0,0,.58-0.52l2.12-5.65a0.84,0.84,0,0,1,1.5-.15l3.2,5.12a0.84,0.84,0,0,0,.68.4l6,0.27a0.84,0.84,0,0,1,.61,1.38l-3.88,4.62a0.84,0.84,0,0,0-.17.77l1.61,5.82a0.84,0.84,0,0,1-1.13,1l-5.6-2.26a0.85,0.85,0,0,0-.78.08l-5,3.33a0.84,0.84,0,0,1-1.3-.76l0.42-6A0.84,0.84,0,0,0,31.07,298Z" transform="translate(-9.55 -161.86)"/>
        <path class="cls-19" d="M57.22,187.23l-3.57,6.47a1,1,0,0,1-1.85-.08l-3-6.76a1,1,0,0,0-.75-0.6l-7.25-1.39a1,1,0,0,1-.49-1.78l5.52-4.91a1,1,0,0,0,.34-0.9l-0.92-7.33a1,1,0,0,1,1.54-1l6.38,3.73a1,1,0,0,0,1,0l6.69-3.14a1,1,0,0,1,1.44,1.15l-1.58,7.22a1,1,0,0,0,.26.92l5,5.39a1,1,0,0,1-.65,1.73L58,186.7a1,1,0,0,0-.8.53" transform="translate(-9.55 -161.86)"/>
        <path class="cls-7" d="M57.22,187.23l-3.57,6.47a1,1,0,0,1-1.85-.08l-3-6.76a1,1,0,0,0-.75-0.6l-7.25-1.39a1,1,0,0,1-.49-1.78l5.52-4.91a1,1,0,0,0,.34-0.9l-0.92-7.33a1,1,0,0,1,1.54-1l6.38,3.73a1,1,0,0,0,1,0l6.69-3.14a1,1,0,0,1,1.44,1.15l-1.58,7.22a1,1,0,0,0,.26.92l5,5.39a1,1,0,0,1-.65,1.73L58,186.7A1,1,0,0,0,57.22,187.23Z" transform="translate(-9.55 -161.86)"/>
      </g>
    </g>
  </g>
</svg>
