<svg id="Слой_1" data-name="Слой 1" xmlns="http://www.w3.org/2000/svg" xmlns:xlink="http://www.w3.org/1999/xlink" viewBox="0 0 98.92 98.92"><defs><style>.cls-1,.cls-4,.cls-7{fill:none;}.cls-2{clip-path:url(#clip-path);}.cls-3{fill:#fff;}.cls-4{stroke:#212121;stroke-miterlimit:10;stroke-width:2px;}.cls-5{opacity:0.3;}.cls-6{clip-path:url(#clip-path-3);}.cls-7{stroke:#fff;stroke-linecap:round;stroke-linejoin:round;stroke-width:5px;}.cls-8{font-size:10px;}.cls-10,.cls-11,.cls-12,.cls-13,.cls-14,.cls-15,.cls-16,.cls-17,.cls-18,.cls-19,.cls-20,.cls-21,.cls-22,.cls-23,.cls-24,.cls-25,.cls-26,.cls-27,.cls-28,.cls-29,.cls-30,.cls-8,.cls-9{fill:#212121;font-family:NEXTART Bold;font-weight:700;}.cls-9{font-size:10px;}.cls-10{font-size:10px;}.cls-11{font-size:10px;}.cls-12{font-size:10px;}.cls-13{font-size:10px;}.cls-14{font-size:10px;}.cls-15{font-size:10px;}.cls-16{font-size:10px;}.cls-17{font-size:10px;}.cls-18{font-size:10px;}.cls-19{font-size:10px;}.cls-20{font-size:10px;}.cls-21{font-size:10px;}.cls-22{font-size:10px;}.cls-23{font-size:10px;}.cls-24{font-size:10px;}.cls-25{font-size:10px;}.cls-26{font-size:10px;}.cls-27{font-size:10px;}.cls-28{font-size:10px;}.cls-29{font-size:10px;}.cls-30{font-size:10px;}</style><clipPath id="clip-path" transform="translate(0 0)"><rect class="cls-1" width="98.92" height="98.92"/></clipPath><clipPath id="clip-path-3" transform="translate(0 0)"><rect class="cls-1" x="46.88" y="22.23" width="29.32" height="29.32"/></clipPath></defs><title>Vector Smart Objec33</title><g class="cls-2"><g class="cls-2"><path class="cls-3" d="M97.92,49.46A48.46,48.46,0,1,1,49.46,1,48.46,48.46,0,0,1,97.92,49.46" transform="translate(0 0)"/><circle class="cls-4" cx="49.46" cy="49.46" r="48.46"/><circle class="cls-4" cx="49.46" cy="49.46" r="32.57"/><g class="cls-5"><g class="cls-6"><path class="cls-7" d="M49.38,24.73A24.32,24.32,0,0,1,73.69,49" transform="translate(0 0)"/></g></g></g><text class="cls-8" transform="matrix(-0.48, -0.88, 0.88, -0.48, 18.7, 69.37)">Г</text><text class="cls-9" transform="matrix(-0.31, -0.95, 0.95, -0.31, 15.97, 64.6)">О</text><text class="cls-10" transform="translate(13.56 57.32) rotate(-95.93)">Л</text><text class="cls-11" transform="translate(12.72 49.59) rotate(-84.02)">О</text><text class="cls-12" transform="translate(13.5 41.99) rotate(-72.28)">С</text><text class="cls-13" transform="translate(15.69 34.98) rotate(-60.49)">О</text><text class="cls-14" transform="translate(19.48 28.32) rotate(-49.36)">В</text><text class="cls-15" transform="matrix(0.78, -0.63, 0.63, 0.78, 23.77, 23.25)">А</text><text class="cls-16" transform="translate(29.17 18.92) rotate(-28.69)">Т</text><text class="cls-17" transform="translate(34.48 15.98) rotate(-18.96)">Ь</text><text class="cls-18" transform="translate(40.53 14.02) rotate(-12.15)"> </text><text class="cls-19" transform="matrix(1, -0.1, 0.1, 1, 42.72, 13.42)">З</text><text class="cls-20" transform="translate(48.78 12.77) rotate(4.53)">А</text><text class="cls-21" transform="translate(55.75 13.46) rotate(11.79)"> </text><text class="cls-22" transform="translate(58.01 13.71) rotate(19.84)">N</text><text class="cls-23" transform="translate(65.38 16.54) rotate(28.43)">I</text><text class="cls-24" transform="matrix(0.8, 0.6, -0.6, 0.8, 68.14, 17.84)">C</text><text class="cls-25" transform="translate(74.05 22.22) rotate(47.73)">K</text><text class="cls-26" transform="translate(78.71 27.39) rotate(57.55)">E</text><text class="cls-10" transform="matrix(0.4, 0.92, -0.92, 0.4, 81.77, 32.17)">L</text><text class="cls-27" transform="matrix(0.23, 0.97, -0.97, 0.23, 84.09, 37.16)">O</text><text class="cls-28" transform="translate(85.85 44.61) rotate(88.23)">D</text><text class="cls-17" transform="translate(86.03 51.72) rotate(98.1)">E</text><text class="cls-10" transform="matrix(-0.32, 0.95, -0.95, -0.32, 85.36, 57.31)">O</text><text class="cls-29" transform="matrix(-0.51, 0.86, -0.86, -0.51, 82.97, 64.57)">N</text><text class="cls-30" transform="translate(78.76 71.3) rotate(128.68)"> </text></g></svg>